<?xml version="1.0" standalone="no"?>
<!DOCTYPE svg PUBLIC "-//W3C//DTD SVG 20010904//EN"
 "http://www.w3.org/TR/2001/REC-SVG-20010904/DTD/svg10.dtd">
<svg version="1.0" xmlns="http://www.w3.org/2000/svg"
 width="500.000000pt" height="500.000000pt" viewBox="0 0 500.000000 500.000000"
 preserveAspectRatio="xMidYMid meet">
<metadata>
Created by potrace 1.14, written by Peter Selinger 2001-2017
</metadata>
<g transform="translate(0.000000,500.000000) scale(0.100000,-0.100000)"
fill="#000000" stroke="none">
<path d="M2027 4089 c-57 -13 -136 -54 -237 -120 -54 -35 -102 -59 -118 -59
-43 0 -149 -28 -194 -51 -64 -33 -154 -124 -187 -191 -62 -124 -68 -270 -13
-358 l31 -50 -15 -87 c-19 -106 -14 -283 10 -360 21 -67 70 -131 121 -157 54
-28 160 -33 244 -11 87 22 161 61 260 137 46 34 93 69 103 77 19 14 20 12 14
-80 -4 -52 -9 -125 -12 -164 l-6 -70 -94 -44 c-139 -66 -238 -134 -340 -236
-140 -140 -202 -281 -192 -440 13 -188 174 -296 333 -221 67 31 107 66 159
140 121 170 185 376 212 678 4 43 12 82 18 87 19 16 307 91 348 91 l38 0 -6
-52 c-3 -29 -11 -113 -17 -187 l-12 -134 -65 -21 c-124 -41 -187 -88 -164
-123 17 -27 64 -20 149 21 l75 35 0 -92 c0 -51 5 -155 10 -232 26 -345 85
-524 183 -549 31 -8 40 -6 71 17 44 34 82 113 97 201 16 93 6 351 -16 431 -36
129 -107 234 -184 270 -22 11 -41 22 -41 25 1 8 511 372 529 377 9 2 81 -35
161 -82 215 -127 330 -159 570 -159 177 0 237 8 670 94 162 32 337 64 388 71
l92 13 0 39 0 38 -57 -7 c-32 -3 -166 -29 -298 -56 -353 -72 -587 -115 -705
-129 -174 -20 -335 0 -489 59 -74 29 -290 154 -288 167 1 5 -6 10 -15 10 -9 0
-19 3 -22 6 -3 3 -22 3 -41 1 -25 -3 -35 -9 -31 -18 3 -8 -84 -77 -241 -191
-136 -98 -251 -180 -255 -181 -5 -2 -7 7 -4 20 3 12 13 104 22 203 l17 180
212 420 c222 441 270 557 295 719 14 91 8 131 -22 163 -25 27 -48 29 -88 8
-108 -56 -318 -525 -401 -895 -22 -100 -69 -382 -69 -417 0 -2 -18 -3 -39 -3
-54 0 -180 -25 -276 -55 -43 -13 -81 -23 -83 -21 -2 2 2 88 9 191 12 178 14
189 38 219 14 17 70 82 124 145 193 225 252 387 172 471 -37 39 -67 44 -118
22 -109 -48 -202 -242 -269 -558 l-22 -106 -96 -77 c-169 -136 -265 -184 -391
-196 -62 -6 -82 -4 -108 10 -73 37 -114 209 -93 388 7 55 15 103 17 106 3 2
27 -3 53 -12 258 -93 771 243 880 578 27 81 31 179 8 222 -21 43 -79 90 -123
102 -45 13 -123 13 -176 0z m203 -54 c40 -21 70 -82 70 -142 -1 -101 -63 -221
-178 -344 -127 -135 -289 -240 -447 -288 -111 -35 -275 -27 -275 12 0 31 35
127 71 197 74 141 247 360 284 360 10 0 45 -28 77 -61 32 -34 61 -59 65 -56 3
3 2 22 -1 41 -5 25 -21 48 -58 81 -49 44 -50 46 -34 64 44 49 288 150 364 151
18 0 46 -7 62 -15z m818 -153 c-6 -61 -62 -260 -100 -353 -28 -67 -321 -680
-324 -676 -9 9 83 404 126 537 81 254 238 550 291 550 8 0 10 -17 7 -58z
m-1428 -48 c0 -3 -24 -35 -54 -72 -78 -96 -160 -231 -198 -325 l-33 -80 -3 69
c-6 140 61 288 166 364 48 35 122 62 122 44z m653 -129 c-3 -9 -8 -14 -10 -11
-3 3 -2 9 2 15 9 16 15 13 8 -4z m157 -124 c27 -51 1 -156 -60 -247 -34 -50
-193 -244 -197 -240 -1 1 16 67 38 146 56 201 112 314 172 347 30 17 35 16 47
-6z m21 -158 c-12 -20 -14 -14 -5 12 4 9 9 14 11 11 3 -2 0 -13 -6 -23z m-28
-63 c-5 -19 -23 -39 -23 -25 0 9 20 45 24 45 2 0 2 -9 -1 -20z m-400 -932
c-55 -487 -211 -787 -410 -788 -100 0 -170 134 -144 276 21 112 61 178 179
292 59 58 125 119 147 138 42 34 202 124 222 124 7 0 9 -14 6 -42z m609 -305
c106 -96 181 -397 149 -603 -11 -76 -64 -201 -88 -208 -30 -9 -83 126 -114
291 -16 84 -22 168 -26 335 -6 221 -6 222 16 222 11 0 40 -17 63 -37z m175
-295 c-3 -7 -5 -2 -5 12 0 14 2 19 5 13 2 -7 2 -19 0 -25z m10 -65 c-3 -10 -5
-4 -5 12 0 17 2 24 5 18 2 -7 2 -21 0 -30z"/>
</g>
</svg>
