<?xml version="1.0" standalone="no"?>
<!DOCTYPE svg PUBLIC "-//W3C//DTD SVG 20010904//EN"
 "http://www.w3.org/TR/2001/REC-SVG-20010904/DTD/svg10.dtd">
<svg version="1.0" xmlns="http://www.w3.org/2000/svg"
 width="376.000000pt" height="376.000000pt" viewBox="0 0 376.000000 376.000000"
 preserveAspectRatio="xMidYMid meet">
<metadata>
Created by potrace 1.14, written by Peter Selinger 2001-2017
</metadata>
<g transform="translate(0.000000,376.000000) scale(0.100000,-0.100000)"
fill="#000000" stroke="none">
<path d="M790 3284 c-76 -20 -109 -36 -228 -112 -81 -50 -114 -66 -149 -68
-195 -16 -352 -151 -397 -342 -25 -107 -8 -217 41 -274 15 -17 14 -56 -3 -131
-11 -46 -12 -215 -3 -272 6 -33 20 -82 33 -110 26 -56 84 -118 103 -111 7 3
13 1 13 -3 0 -18 63 -30 133 -27 130 7 248 61 399 183 l80 64 -8 -148 c-4 -81
-7 -156 -6 -166 1 -14 -22 -30 -91 -61 -186 -87 -359 -224 -447 -355 -65 -97
-94 -187 -94 -296 0 -81 3 -95 29 -144 81 -148 257 -169 387 -47 124 117 236
371 262 591 2 22 8 67 12 100 9 72 12 103 13 133 1 22 21 35 74 47 12 2 70 18
129 35 127 35 210 47 203 28 -5 -15 -13 -91 -21 -203 -4 -44 -8 -87 -9 -95 -2
-8 -4 -29 -4 -45 -1 -30 -4 -32 -87 -59 -96 -31 -160 -78 -149 -109 11 -27 63
-21 144 18 41 20 75 34 77 32 2 -2 6 -67 9 -145 16 -473 80 -711 195 -723 71
-7 129 69 155 204 18 89 13 337 -8 417 -41 159 -113 264 -207 304 l-32 13 272
197 272 197 137 -79 c178 -104 184 -107 284 -136 140 -41 345 -51 511 -26 39
6 85 12 101 14 48 7 85 14 350 67 138 28 304 58 370 68 l120 17 3 36 3 37 -48
-6 c-26 -3 -178 -32 -338 -65 -545 -111 -691 -133 -842 -130 -137 3 -303 47
-418 112 -142 80 -195 113 -195 123 0 8 -20 12 -54 13 -41 0 -53 -3 -52 -14 1
-12 -156 -132 -462 -353 l-43 -31 6 64 c10 111 16 172 20 198 3 14 7 55 10 91
6 62 21 96 219 490 194 387 260 539 281 644 36 190 16 264 -68 248 -83 -16
-222 -263 -337 -598 -75 -220 -110 -382 -154 -697 -3 -25 -6 -26 -61 -32 -99
-12 -127 -17 -230 -46 -110 -31 -129 -35 -122 -22 3 4 8 59 11 122 15 266 13
257 77 328 63 68 185 217 212 257 35 53 75 153 82 205 10 79 -36 140 -106 140
-66 0 -137 -73 -197 -202 -45 -97 -89 -253 -128 -445 -5 -25 -110 -119 -204
-183 -134 -91 -246 -128 -367 -121 -36 2 -81 48 -104 109 -27 72 -37 237 -19
340 6 40 13 72 14 72 1 0 26 -9 56 -19 269 -96 781 251 884 598 63 211 -77
352 -294 295z m205 -47 c11 -6 23 -10 28 -9 4 1 6 -1 5 -5 -1 -5 6 -23 15 -40
30 -56 24 -146 -13 -231 -97 -219 -393 -452 -643 -507 -81 -18 -169 -15 -209
6 -25 13 -22 54 11 140 56 147 272 439 325 439 21 0 106 -73 106 -91 0 -4 8
-9 18 -11 15 -4 18 0 16 17 -4 37 -22 62 -70 99 l-46 35 26 25 c50 46 230 127
331 148 27 6 76 -2 100 -15z m818 -144 c-5 -58 -65 -272 -103 -368 -16 -38
-79 -173 -140 -300 -62 -126 -130 -267 -151 -312 -41 -88 -53 -103 -38 -50 4
17 22 104 39 192 29 149 84 346 133 475 69 185 223 436 255 416 5 -3 7 -27 5
-53z m-726 -25 c-7 -48 -37 -142 -44 -135 -2 3 5 35 16 72 12 37 21 76 21 86
0 10 3 19 6 19 3 0 4 -19 1 -42z m-779 -136 c-82 -108 -173 -267 -198 -347
-12 -36 -14 -37 -21 -17 -11 29 -5 125 11 182 29 107 102 213 176 256 40 24
103 45 112 38 2 -1 -34 -52 -80 -112z m1509 6 c-3 -8 -6 -5 -6 6 -1 11 2 17 5
13 3 -3 4 -12 1 -19z m-784 -35 c-10 -28 -43 -73 -54 -73 -5 0 -1 10 11 22 11
12 20 27 20 33 0 10 19 35 27 35 1 0 0 -8 -4 -17z m-70 -108 c-3 -9 -8 -14
-10 -11 -3 3 -2 9 2 15 9 16 15 13 8 -4z m231 -17 c30 -47 -2 -158 -75 -265
-18 -26 -38 -53 -44 -59 -5 -6 -28 -33 -50 -60 -47 -57 -109 -124 -102 -109 3
6 24 77 46 157 46 169 88 263 140 319 43 44 64 49 85 17z m35 -116 c-18 -57
-72 -159 -76 -145 -2 6 14 47 36 91 23 44 42 92 42 108 1 24 2 25 6 6 2 -12
-1 -39 -8 -60z m-268 -135 c-10 -9 -11 -8 -5 6 3 10 9 15 12 12 3 -3 0 -11 -7
-18z m-175 -909 c-47 -454 -209 -770 -404 -783 -107 -7 -184 144 -152 299 14
70 52 155 83 187 98 102 244 234 292 264 47 31 168 93 184 95 2 0 0 -28 -3
-62z m604 -287 c50 -39 114 -173 135 -280 2 -13 6 -30 9 -39 15 -50 23 -250
11 -284 -2 -7 -7 -30 -10 -51 -7 -49 -42 -131 -64 -152 -28 -24 -47 -9 -75 58
-33 80 -51 156 -70 292 -16 112 -30 478 -18 489 9 10 45 -4 82 -33z m126 -114
c14 -30 14 -31 -1 -12 -25 30 -39 59 -26 51 6 -4 18 -22 27 -39z m-1296 -67
l-11 -25 6 25 c2 14 5 34 6 45 2 19 2 19 6 0 2 -12 -1 -32 -7 -45z m1344 -61
c3 -19 8 -56 12 -84 3 -27 7 -60 9 -72 2 -13 0 -23 -5 -23 -5 0 -8 8 -8 18 1
14 -8 79 -27 207 -4 25 -4 26 4 9 5 -12 12 -37 15 -55z m-1360 -54 c3 -8 1
-15 -4 -15 -6 0 -10 7 -10 15 0 8 2 15 4 15 2 0 6 -7 10 -15z m1383 -177 c-3
-7 -5 -2 -5 12 0 14 2 19 5 13 2 -7 2 -19 0 -25z"/>
</g>
</svg>
